<svg xmlns="http://www.w3.org/2000/svg" width="21.515" height="18" viewBox="0 0 21.515 18">
  <path id="Union_2438" data-name="Union 2438" d="M12.145,15.75H.75a.75.75,0,0,1,0-1.5h11.4l-.009.037a3,3,0,0,1,5.91.554,2.983,2.983,0,0,0-.09-.591h2.81a.75.75,0,0,1,0,1.5h-2.81a3,3,0,0,1-5.811,0Zm1.4-.75a1.5,1.5,0,1,0,1.5-1.5A1.5,1.5,0,0,0,13.55,15Zm-1.5.143v0Zm5.994-.044v0Zm-6,0v0Zm6-.045v0Zm-6,0v0Zm6-.053h0s0,0,0,0S18.05,15,18.05,15Zm-6,0h0s0,0,0,0S12.051,15,12.051,15Zm6-.042c0-.007,0-.014,0-.021S18.05,14.951,18.05,14.958Zm-6,0c0-.006,0-.011,0-.017S12.051,14.951,12.051,14.957Zm6-.041q0-.012,0-.025C18.049,14.9,18.049,14.908,18.049,14.916Zm-6,0v0Zm6-.037c0-.009,0-.019,0-.028C18.047,14.857,18.047,14.866,18.048,14.876Zm-5.994-.009v0Zm.006-.1v0Zm0-.046v0Zm.058-.369,0-.013Zm.008-.037.006-.023ZM3.146,9.75H.75a.75.75,0,0,1,0-1.5h2.4a3,3,0,0,1,5.811,0h11.81a.75.75,0,0,1,0,1.5H8.956c.005-.021.01-.042.015-.063a3,3,0,0,1-5.826.063ZM4.55,9a1.5,1.5,0,1,0,1.5-1.5A1.5,1.5,0,0,0,4.55,9Zm4.425.668,0-.016ZM3.1,9.521v0Zm-.007-.042,0-.012Zm-.007-.045,0-.01ZM3.075,9.38v0ZM3.07,9.338l0-.017Zm0-.044,0-.017Zm0-.047v0Zm0-.056v0Zm0-.043v0Zm5.992,0v0ZM3.053,9.1v0Zm6,0v0Zm-6-.045s0-.009,0-.013S3.052,9.053,3.052,9.057Zm6,0s0-.009,0-.013S9.05,9.053,9.05,9.057ZM9.05,9Zm-6,0Zm6-.043c0-.005,0-.01,0-.015S9.05,8.952,9.05,8.957Zm-6,0v0Zm6-.043v0Zm-6,0v0Zm6-.04v0ZM3.054,8.86v0Zm5.991-.036v0Zm0-.056,0-.024Zm0-.041,0-.026Zm0-.041,0-.029Zm0-.033q-.017-.146-.048-.289C9,8.458,9.019,8.555,9.03,8.653Zm-.049-.3L8.975,8.33ZM8.97,8.307l0-.015ZM12.146,3.75H.75a.75.75,0,0,1,0-1.5h11.4a3,3,0,0,1,5.811,0h2.81a.75.75,0,0,1,0,1.5h-2.81c.005-.02.01-.041.015-.061a3,3,0,0,1-5.825.061ZM13.55,3a1.5,1.5,0,1,0,1.5-1.5A1.5,1.5,0,0,0,13.55,3Zm4.426.667,0-.013Zm-5.852-.005,0-.008Zm-.009-.043,0-.01Zm-.01-.052,0-.014ZM12.1,3.526l0-.019Zm-.007-.042,0-.02Zm-.007-.044,0-.018Zm-.008-.059,0-.016Zm-.005-.043,0-.019Zm0-.044,0-.018Zm0-.047v0Zm0-.057v0Zm0-.043v0Zm5.992,0v0ZM12.053,3.1v0Zm6,0v0Zm-6-.045s0-.009,0-.013S12.052,3.052,12.052,3.057Zm6,0s0-.009,0-.013S18.05,3.052,18.05,3.057Zm0-.057Zm-6,0Zm6-.043c0-.005,0-.01,0-.015S18.05,2.951,18.05,2.956Zm-6,0v0Zm6-.043v0Zm-6,0v0Zm6-.041v0Zm-5.993-.009v0Zm5.991-.039v0Zm0-.054v0Zm0-.043,0-.02Zm0-.043,0-.021Zm0-.042-.005-.04Zm-.008-.06,0-.024Zm-.006-.042,0-.024ZM18.008,2.5l0-.024ZM18,2.452l0-.026Zm-.012-.06,0-.015Zm-.009-.044,0-.013Zm-.012-.05v0Z" fill="#fff"/>
</svg>
