<svg xmlns="http://www.w3.org/2000/svg" width="17.894" height="17.89" viewBox="0 0 17.894 17.89">
  <g id="objects-column-2" transform="translate(-2.9 -2.903)">
    <path id="Path_446" data-name="Path 446" d="M9.854,3H3.872A.873.873,0,0,0,3,3.875v6.98a.873.873,0,0,0,.872.872H9.854a.873.873,0,0,0,.872-.872V3.875A.873.873,0,0,0,9.854,3h0Zm-.375,7.476H4.246V4.249H9.479Z" transform="translate(0 0)" fill="#fff" stroke="#fff" stroke-width="0.2"/>
    <path id="Path_447" data-name="Path 447" d="M19.993,12.124H14.012A.873.873,0,0,0,13.14,13v6.98a.873.873,0,0,0,.872.872h5.981a.873.873,0,0,0,.873-.872V13a.873.873,0,0,0-.873-.872Zm-.374,7.47H14.386v-6.23h5.234Z" transform="translate(-0.172 -0.154)" fill="#fff" stroke="#fff" stroke-width="0.2"/>
    <path id="Path_448" data-name="Path 448" d="M9.854,14.152H3.872A.873.873,0,0,0,3,15.024v4.985a.873.873,0,0,0,.872.872H9.854a.873.873,0,0,0,.872-.872V15.024a.873.873,0,0,0-.872-.872Zm-.375,5.482H4.246V15.4H9.479Z" transform="translate(0 -0.189)" fill="#fff" stroke="#fff" stroke-width="0.2"/>
    <path id="Path_449" data-name="Path 449" d="M19.993,3H14.012a.873.873,0,0,0-.872.872V8.86a.873.873,0,0,0,.872.872h5.981a.873.873,0,0,0,.873-.872V3.875A.873.873,0,0,0,19.993,3h0Zm-.374,5.482H14.386V4.249h5.234Z" transform="translate(-0.172 0)" fill="#fff" stroke="#fff" stroke-width="0.2"/>
  </g>
</svg>
