<svg xmlns="http://www.w3.org/2000/svg" width="22.51" height="23.48" viewBox="0 0 22.51 23.48">
  <path id="Union_813" data-name="Union 813" d="M9.9,23.48a2.523,2.523,0,0,1-2.527-2.523V20.18H2.525A2.518,2.518,0,0,1,0,17.66V2.52A2.521,2.521,0,0,1,2.525,0H9.465V1.262H2.525a1.258,1.258,0,0,0-.9.371,1.217,1.217,0,0,0-.369.887V17.66a1.26,1.26,0,0,0,1.268,1.258H7.369V5.824a2.516,2.516,0,0,1,2.1-2.484V0l3.3,3.3h4.064V4.563H14.023l1.119,1.109V17.66a2.521,2.521,0,0,1-2.529,2.52H8.635v.777A1.263,1.263,0,0,0,9.9,22.223H19.984a1.266,1.266,0,0,0,1.262-1.266V8.973H18.719a1.884,1.884,0,0,1-1.887-1.891V3.3L22.51,8.973V20.957a2.524,2.524,0,0,1-2.525,2.523Zm2.717-4.562a1.255,1.255,0,0,0,1.256-1.258V5.672H11.352A1.88,1.88,0,0,1,9.643,4.586,1.223,1.223,0,0,0,9,4.938a1.239,1.239,0,0,0-.361.887V18.918Z" fill="#fff"/>
</svg>
