<svg xmlns="http://www.w3.org/2000/svg" width="14.863" height="14.863" viewBox="0 0 14.863 14.863">
  <g id="Group_191411" data-name="Group 191411" transform="translate(-7.567 -7.568)">
    <g id="Group_173251" data-name="Group 173251" transform="translate(-1189.148 -237)">
      <g id="Group_173251-2" data-name="Group 173251">
        <g id="Group_35620" data-name="Group 35620" transform="translate(1197.364 245.219)">
          <g id="Group_41860" data-name="Group 41860" transform="translate(0.001)">
            <g id="Group_28378" data-name="Group 28378">
              <path id="Path_32867" data-name="Path 32867" d="M6.782,0A6.782,6.782,0,1,1,0,6.782,6.782,6.782,0,0,1,6.782,0Z" fill="none" stroke="#0c1014" stroke-width="1.3"/>
            </g>
          </g>
        </g>
      </g>
    </g>
    <path id="Path_79448" data-name="Path 79448" d="M154.918,132.358c0-.668,0-1.336,0-2a1.388,1.388,0,0,1,.027-.3.491.491,0,0,1,.718-.371,2.083,2.083,0,0,1,.259.13q1.7.982,3.4,1.966a2.079,2.079,0,0,1,.231.151.506.506,0,0,1,0,.857,2.069,2.069,0,0,1-.218.143q-1.714.991-3.431,1.979a1.49,1.49,0,0,1-.387.156.436.436,0,0,1-.542-.314,1.37,1.37,0,0,1-.056-.385c-.005-.668,0-1.336,0-2" transform="translate(-141.664 -117.353)"/>
  </g>
</svg>
