<svg xmlns="http://www.w3.org/2000/svg" xmlns:xlink="http://www.w3.org/1999/xlink" width="16.5" height="21.226" viewBox="0 0 16.5 21.226">
  <defs>
    <clipPath id="clip-path">
      <rect id="Rectangle_38221" data-name="Rectangle 38221" width="16.5" height="21.226" fill="#8191ac"/>
    </clipPath>
  </defs>
  <g id="Group_190784" data-name="Group 190784" transform="translate(0 0)">
    <g id="Group_190784-2" data-name="Group 190784" transform="translate(0 0)" clip-path="url(#clip-path)">
      <path id="Path_100406" data-name="Path 100406" d="M16.306,4.523,11.842.187A.679.679,0,0,0,11.375,0H2A1.975,1.975,0,0,0,0,1.943V19.283a1.975,1.975,0,0,0,2,1.943H14.5a1.974,1.974,0,0,0,2-1.943V4.977a.628.628,0,0,0-.194-.454M1.322,1.943A.67.67,0,0,1,2,1.283h8.714V3.676a1.975,1.975,0,0,0,2,1.943h2.464V19.283a.67.67,0,0,1-.678.66H2a.67.67,0,0,1-.678-.66Z" transform="translate(0 0)" fill="#8191ac"/>
      <path id="Path_100407" data-name="Path 100407" d="M12.745,10.8H6.494a.642.642,0,1,0,0,1.283h6.251a.642.642,0,1,0,0-1.283" transform="translate(0.417 0.437)" fill="#8191ac"/>
      <path id="Path_100408" data-name="Path 100408" d="M3.161,6.968H8.518a.642.642,0,1,0,0-1.283H3.161a.642.642,0,1,0,0,1.283" transform="translate(0.179 0.23)" fill="#8191ac"/>
      <path id="Path_100409" data-name="Path 100409" d="M3.161,9.527h9.822a.642.642,0,1,0,0-1.283H3.161a.642.642,0,1,0,0,1.283" transform="translate(0.179 0.333)" fill="#8191ac"/>
      <path id="Path_100410" data-name="Path 100410" d="M9.085,15.392a18.575,18.575,0,0,1-1.812,1.549,6.1,6.1,0,0,1-.22-.629c-.181-.584-.324-1.045-.781-1.045-.391,0-.568.348-.835.874a4.823,4.823,0,0,1-.5.86,1.067,1.067,0,0,1-.445-.285,3.5,3.5,0,0,0,.887-1.883,1.3,1.3,0,0,0-1.339-1.3A1.728,1.728,0,0,0,2.7,15.267a2.674,2.674,0,0,0,.605,1.456,4.031,4.031,0,0,1-.426.365.425.425,0,0,0-.09.607.455.455,0,0,0,.625.087,4.722,4.722,0,0,0,.487-.414,1.75,1.75,0,0,0,1.031.5c.6,0,.962-.667,1.273-1.28.207.662.4,1.28.96,1.28.149,0,.6,0,2.545-1.858a.425.425,0,0,0,.005-.613.455.455,0,0,0-.631-.005m-5.18.644a1.538,1.538,0,0,1-.311-.769A1.109,1.109,0,0,1,4.04,14.4a.416.416,0,0,1,.447.433,2.575,2.575,0,0,1-.583,1.2" transform="translate(0.193 0.547)" fill="#8191ac"/>
    </g>
  </g>
</svg>
