<svg xmlns="http://www.w3.org/2000/svg" width="14.294" height="14.279" viewBox="0 0 14.294 14.279">
  <path id="Union_2449" data-name="Union 2449" d="M-786.029,3578.056l-.05-.049h0a3.2,3.2,0,0,1-.922-2.25,3.2,3.2,0,0,1,.921-2.249l1.775-1.775v.02a4.787,4.787,0,0,0,.279,1.233l-1.286,1.286a2.119,2.119,0,0,0-.6,1.482,2.114,2.114,0,0,0,.6,1.48l.055.056h0a2.107,2.107,0,0,0,1.482.6,2.109,2.109,0,0,0,1.481-.6l3.083-3.084a2.124,2.124,0,0,0,.6-1.482,2.12,2.12,0,0,0-.6-1.481l-.055-.055c-.053-.052-.108-.1-.17-.151l.769-.768c.055.045.109.1.161.147l.054.057h0a3.2,3.2,0,0,1,.922,2.25,3.2,3.2,0,0,1-.921,2.251l-3.081,3.083a3.192,3.192,0,0,1-2.249.924A3.192,3.192,0,0,1-786.029,3578.056Zm4.5-4.5-.049-.049a3.2,3.2,0,0,1-.923-2.251,3.193,3.193,0,0,1,.923-2.25l3.08-3.083a3.187,3.187,0,0,1,2.248-.924,3.187,3.187,0,0,1,2.248.924l.071.069h0a3.154,3.154,0,0,1,.921,2.232,3.154,3.154,0,0,1-.934,2.245l-1.774,1.775v-.021a4.853,4.853,0,0,0-.28-1.232l1.286-1.287a2.116,2.116,0,0,0,.6-1.481,2.118,2.118,0,0,0-.6-1.481l-.054-.055h0a2.112,2.112,0,0,0-1.482-.6,2.115,2.115,0,0,0-1.481.6l-3.085,3.084a2.116,2.116,0,0,0-.6,1.482,2.116,2.116,0,0,0,.6,1.48l.053.054a1.953,1.953,0,0,0,.17.155l-.769.77C-781.416,3573.661-781.474,3573.608-781.525,3573.557Z" transform="translate(787.15 -3564.85)" stroke="#000" stroke-width="0.3"/>
</svg>
