<svg xmlns="http://www.w3.org/2000/svg" width="16.387" height="21.147" viewBox="0 0 16.387 21.147">
  <path id="file-lines" d="M6.988,23.146H6.952A2.7,2.7,0,0,1,4.25,20.5V4.644A2.7,2.7,0,0,1,6.952,2h7.009a1.309,1.309,0,0,1,.907.364h0l5.375,5.205a1.255,1.255,0,0,1,.393.914V20.5a2.7,2.7,0,0,1-2.7,2.645H6.988ZM5.627,4.645V20.5A1.345,1.345,0,0,0,6.97,21.813H17.916a1.337,1.337,0,0,0,1.336-1.31h0V7.956H16.509a2.026,2.026,0,0,1-2.025-1.985V3.333H6.97A1.344,1.344,0,0,0,5.627,4.645v0ZM8.7,18.188a.558.558,0,0,1,0-1.114h4.062a.59.59,0,0,1,.4.18h0a.544.544,0,0,1,.154.38v.021h0a.573.573,0,0,1-.55.536H8.7Zm0-2.717a.557.557,0,0,1,0-1.114h7.474a.577.577,0,0,1,.4.179h0a.545.545,0,0,1,.153.38v.022h0a.571.571,0,0,1-.551.534H8.7Zm0-2.716a.557.557,0,0,1,0-1.114h7.474a.577.577,0,0,1,.4.179h0a.545.545,0,0,1,.153.38v.022h0a.571.571,0,0,1-.551.534H8.7Z" transform="translate(-4.25 -1.999)" fill="#8191ac"/>
</svg>
