<svg xmlns="http://www.w3.org/2000/svg" width="16.884" height="15.983" viewBox="0 0 16.884 15.983">
  <g id="Group_42829" data-name="Group 42829" transform="translate(0.257 0.25)">
    <g id="Group_42829-2" data-name="Group 42829" transform="translate(0 0)">
      <g id="Group_42830" data-name="Group 42830">
        <path id="Path_44140" data-name="Path 44140" d="M8.2,0q3.232,0,6.465,0a1.7,1.7,0,0,1,1.244,2.876q-2.686,2.952-5.374,5.9a.8.8,0,0,0-.231.6c.013.986,0,1.972.008,2.958a.749.749,0,0,1-.3.638Q8.58,14.115,7.154,15.261l-.09.07a.587.587,0,0,1-.656.084.6.6,0,0,1-.347-.583q0-1.432,0-2.863c0-.9,0-1.808,0-2.711a.52.52,0,0,0-.147-.387Q3.2,5.888.482,2.9A1.7,1.7,0,0,1,1.124.108a2.072,2.072,0,0,1,.668-.1C3.928,0,6.064,0,8.2,0M7.276,13.585a.55.55,0,0,0,.075-.038c.551-.444,1.1-.885,1.65-1.336a.325.325,0,0,0,.091-.225c.006-1.018.008-2.036,0-3.053A.874.874,0,0,1,9.335,8.3q2.732-3,5.455-6.008c.064-.07.126-.142.191-.211a.49.49,0,0,0,.129-.571.509.509,0,0,0-.524-.3q-6.39,0-12.78,0a.528.528,0,0,0-.558.3.526.526,0,0,0,.159.6q2.819,3.1,5.635,6.2a.834.834,0,0,1,.235.6c-.006,1.03,0,2.061,0,3.091Z" transform="translate(0 0)" fill="#2a3032" stroke="#2a3032" stroke-width="0.5"/>
      </g>
    </g>
  </g>
</svg>
