<svg id="Component_278_2759" data-name="Component 278 – 2759" xmlns="http://www.w3.org/2000/svg" width="13.035" height="13.147" viewBox="0 0 13.035 13.147">
  <path id="Path_355" data-name="Path 355" d="M536.449,76.359a.413.413,0,0,0-.577,0l-6.1,5.933a.421.421,0,0,0-.128.3v5.638a1.172,1.172,0,0,0,1.185,1.156H534.8a.418.418,0,0,0,.416-.42V85.887a.952.952,0,0,1,1.9,0v3.081a.418.418,0,0,0,.416.42h3.967a1.172,1.172,0,0,0,1.185-1.156V82.594a.42.42,0,0,0-.128-.3Z" transform="translate(-529.643 -76.241)" fill="#7e8b9f"/>
</svg>
