<svg xmlns="http://www.w3.org/2000/svg" width="14.864" height="14.863" viewBox="0 0 14.864 14.863">
  <g id="Group_35620" data-name="Group 35620" transform="translate(0.649 0.65)">
    <g id="Group_41860" data-name="Group 41860" transform="translate(0.001)">
      <g id="Group_28378" data-name="Group 28378">
        <path id="Path_32867" data-name="Path 32867" d="M6.782,0A6.782,6.782,0,1,1,0,6.782,6.782,6.782,0,0,1,6.782,0Z" fill="none" stroke="#0c1014" stroke-width="1.3"/>
      </g>
    </g>
    <path id="Rectangle_14265_-_Outline" data-name="Rectangle 14265 - Outline" d="M1.021,1A1.021,1.021,0,0,1,2.042,2.021V4.5A1.021,1.021,0,0,1,0,4.5V2.021A1.021,1.021,0,0,1,1.021,1Z" transform="translate(5.761 5.159)" fill="#0c1014"/>
    <path id="Rectangle_14266_-_Outline" data-name="Rectangle 14266 - Outline" d="M1.021,0A1.021,1.021,0,1,1,0,1.021,1.021,1.021,0,0,1,1.021,0Z" transform="translate(5.761 2.88)" fill="#0c1014"/>
  </g>
</svg>
