<svg xmlns="http://www.w3.org/2000/svg" width="18.619" height="22.106" viewBox="0 0 18.619 22.106">
  <g id="file-scale-balanced" transform="translate(-3.573 -1.995)">
    <path id="Path_256" data-name="Path 256" d="M19.215,21.925H16.223V16.28a1.215,1.215,0,0,0,.746-.861v-.008a1.075,1.075,0,0,0,.021-.109V15.3h2.2a.79.79,0,0,0,.155-.015h-.006a.454.454,0,0,0,.289-.2v0a.454.454,0,0,0,.07-.244.44.44,0,0,0-.013-.108v0a.457.457,0,0,0-.444-.358.388.388,0,0,0-.062,0H16.774a1.251,1.251,0,0,0-.521-.431l-.008,0a1.28,1.28,0,0,0-1.547.432l0,0H12.3a1.2,1.2,0,0,0-.156.01h.007a.444.444,0,0,0-.379.439.45.45,0,0,0,.019.128v0a.463.463,0,0,0,.449.349l.048,0h2.205a1.3,1.3,0,0,0,.759.988l.009,0v5.636H12.271a.679.679,0,0,0-.1.007h0a.465.465,0,0,0-.34.222v0a.439.439,0,0,0-.064.231.448.448,0,0,0,.031.164v0a.474.474,0,0,0,.443.308l.043,0h6.946a.471.471,0,0,0,.436-.295v0a.439.439,0,0,0,.038-.181.45.45,0,0,0-.077-.253v0a.492.492,0,0,0-.4-.2h-.023Zm-3.469-7.163h.008a.347.347,0,0,1,.009.694h0a.367.367,0,0,1-.254-.1h0a.345.345,0,0,1-.1-.245V15.1h0v-.012a.326.326,0,0,1,.326-.326h.013Z" transform="translate(0.859 1.242)" fill="#8191ac"/>
    <path id="Path_257" data-name="Path 257" d="M12.472,21.067a1.391,1.391,0,0,0,.186.012h.07a2.39,2.39,0,0,0,.991-.246l-.014.007a2.269,2.269,0,0,0,.5-.328l0,0a2.626,2.626,0,0,0,.3-.306l0,0a2.33,2.33,0,0,0,.5-1.155v-.012a.749.749,0,0,0,.013-.137.73.73,0,0,0-.113-.392l0,0-1.841-2.955a.594.594,0,0,0-.2-.2h0a.427.427,0,0,0-.21-.054.438.438,0,0,0-.393.246v0l-.81,1.308q-.5.81-1.007,1.619a.74.74,0,0,0-.119.4c0,.024,0,.048,0,.072v0a2.115,2.115,0,0,0,.192.736l-.006-.013a2.691,2.691,0,0,0,.411.628l0,0a2.161,2.161,0,0,0,.527.44l.01.006a2.331,2.331,0,0,0,.65.26l.017,0a2.47,2.47,0,0,0,.33.06h.013ZM11.5,18.532l1.157-1.9,1.183,1.9Zm1.163,1.619h-.009a1.392,1.392,0,0,1-1.194-.674l0-.007h2.428a1.376,1.376,0,0,1-1.185.678h-.035Z" transform="translate(0.708 1.395)" fill="#8191ac"/>
    <path id="Path_258" data-name="Path 258" d="M20.708,18.4c-.222-.337-.438-.685-.644-1.022L18.93,15.555a.486.486,0,0,0-.39-.257h-.008a.464.464,0,0,0-.4.238v0q-.909,1.454-1.809,2.907a.818.818,0,0,0-.128.342v0c0,.031,0,.067,0,.1a1.7,1.7,0,0,0,.19.783l0-.01a2.294,2.294,0,0,0,2.068,1.4h.083a2.366,2.366,0,0,0,1.234-.345l-.011.006a2.367,2.367,0,0,0,1.092-1.538l0-.015a.955.955,0,0,0,.029-.239.973.973,0,0,0-.166-.546l0,0Zm-3.349.13,1.17-1.9,1.182,1.9ZM18.526,20.2v-.057h-.018a1.388,1.388,0,0,1-1.191-.675l0-.007h2.428a1.361,1.361,0,0,1-1.178.682h-.032V20.2Z" transform="translate(1.322 1.395)" fill="#8191ac"/>
    <path id="Path_259" data-name="Path 259" d="M9.592,22.6H6.374a1.316,1.316,0,0,1-1.306-1.3V4.807A1.314,1.314,0,0,1,6.376,3.5h7.459v2.68A2.126,2.126,0,0,0,15.949,8.3h2.667v4.742c0,.011,0,.024,0,.038a.752.752,0,1,0,1.5,0c0-.017,0-.032,0-.048V8.79h0a1.383,1.383,0,0,0-.413-.988h0L14.314,2.389A1.332,1.332,0,0,0,13.368,2h-7A2.813,2.813,0,0,0,3.573,4.8V21.285a2.817,2.817,0,0,0,2.8,2.807H9.583a.751.751,0,0,0,.009-1.5h0Z" transform="translate(0 0)" fill="#8191ac"/>
    <path id="Path_260" data-name="Path 260" d="M14.583,8.956H7.394a.721.721,0,1,0,0,1.443h7.189a.722.722,0,0,0,0-1.443h0Z" transform="translate(0.325 0.73)" fill="#8191ac"/>
    <path id="Path_261" data-name="Path 261" d="M15.262,12.1h0c0-.009,0-.02,0-.031a.715.715,0,0,0-.685-.715H7.421a.715.715,0,0,0,0,1.43h7.158a.72.72,0,0,0,.684-.682v0Z" transform="translate(0.328 0.982)" fill="#8191ac"/>
    <path id="Path_262" data-name="Path 262" d="M7.415,13.749a.715.715,0,0,0,0,1.43H9.238a.715.715,0,1,0,0-1.43H7.415Z" transform="translate(0.328 1.232)" fill="#8191ac"/>
  </g>
</svg>
