<svg id="Group_173241" data-name="Group 173241" xmlns="http://www.w3.org/2000/svg" xmlns:xlink="http://www.w3.org/1999/xlink" width="16.364" height="11.103" viewBox="0 0 16.364 11.103">
  <defs>
    <clipPath id="clip-path">
      <rect id="Rectangle_32559" data-name="Rectangle 32559" width="16.364" height="11.103" fill="#0c1014"/>
    </clipPath>
  </defs>
  <g id="Group_173240" data-name="Group 173240" clip-path="url(#clip-path)">
    <path id="Path_79446" data-name="Path 79446" d="M8.2,11.1A8.969,8.969,0,0,1,.147,6.084a1.033,1.033,0,0,1,0-1.062A8.819,8.819,0,0,1,7.064.081a8.93,8.93,0,0,1,9.156,4.938,1.06,1.06,0,0,1,0,1.062A8.934,8.934,0,0,1,9.3,11.031c-.225.034-.453.052-.68.067-.142.01-.285,0-.427,0m.1-9.755c-.33.022-.551.028-.77.052A7.552,7.552,0,0,0,1.547,5.3a.444.444,0,0,0,0,.5,7.543,7.543,0,0,0,7.7,3.852,7.419,7.419,0,0,0,5.626-3.941.281.281,0,0,0,0-.313A7.615,7.615,0,0,0,8.3,1.345" transform="translate(0 0)" fill="#0c1014"/>
    <path id="Path_79447" data-name="Path 79447" d="M96.946,47.928a2.82,2.82,0,1,1-2.818,2.811,2.828,2.828,0,0,1,2.818-2.811m0,4.272A1.452,1.452,0,1,0,95.5,50.731,1.478,1.478,0,0,0,96.941,52.2" transform="translate(-88.764 -45.197)" fill="#0c1014"/>
  </g>
</svg>
