<svg xmlns="http://www.w3.org/2000/svg" width="14.333" height="14.333" viewBox="0 0 14.333 14.333">
  <g id="Group_41638" data-name="Group 41638" transform="translate(2.832 0.061)">
    <path id="Union_1459" data-name="Union 1459" d="M3855.156-24.77l-2.517-2.517a6.5,6.5,0,0,1-8.632-.5,6.5,6.5,0,0,1,0-9.193,6.5,6.5,0,0,1,9.193,0,6.5,6.5,0,0,1,.5,8.632l2.517,2.517a.749.749,0,0,1,0,1.061.747.747,0,0,1-.53.22A.748.748,0,0,1,3855.156-24.77Zm-10.088-11.149a5.006,5.006,0,0,0,0,7.071,5.006,5.006,0,0,0,7.071,0,5.006,5.006,0,0,0,0-7.071,4.987,4.987,0,0,0-3.536-1.462A4.984,4.984,0,0,0,3845.068-35.919Z" transform="translate(-3844.936 38.823)" fill="#7f8a9c"/>
  </g>
</svg>
