<svg xmlns="http://www.w3.org/2000/svg" width="14" height="13.408" viewBox="0 0 14 13.408">
  <path id="star" d="M3.492,13.873a.745.745,0,0,1-.725-.91l.844-3.72a.422.422,0,0,0-.134-.411L.609,6.32a.743.743,0,0,1,.43-1.3l3.788-.344a.422.422,0,0,0,.35-.254l1.5-3.5a.743.743,0,0,1,1.368,0l1.5,3.505a.422.422,0,0,0,.35.254l3.788.344a.745.745,0,0,1,.422,1.3L11.235,8.833a.422.422,0,0,0-.134.411l.844,3.72a.743.743,0,0,1-1.106.8L7.581,11.813a.422.422,0,0,0-.434,0l-3.26,1.953A.744.744,0,0,1,3.492,13.873Z" transform="translate(-0.355 -0.465)" fill="#ffaf2e"/>
</svg>
