<svg id="Group_18142" data-name="Group 18142" xmlns="http://www.w3.org/2000/svg" width="22" height="19" viewBox="0 0 22 19">
  <g id="Group_7044" data-name="Group 7044">
    <g id="Rectangle_6532" data-name="Rectangle 6532" transform="translate(0 3)" fill="none" stroke="#fff" stroke-width="1.2">
      <path d="M2,0H20a2,2,0,0,1,2,2V13a3,3,0,0,1-3,3H3a3,3,0,0,1-3-3V2A2,2,0,0,1,2,0Z" stroke="none"/>
      <path d="M2,.6H20A1.4,1.4,0,0,1,21.4,2V13A2.4,2.4,0,0,1,19,15.4H3A2.4,2.4,0,0,1,.6,13V2A1.4,1.4,0,0,1,2,.6Z" fill="none"/>
    </g>
    <g id="Rectangle_6533" data-name="Rectangle 6533" transform="translate(0 3)" fill="none" stroke="#fff" stroke-width="1.2">
      <path d="M2,0H20a2,2,0,0,1,2,2V4a4,4,0,0,1-4,4H4A4,4,0,0,1,0,4V2A2,2,0,0,1,2,0Z" stroke="none"/>
      <path d="M2,.6H20A1.4,1.4,0,0,1,21.4,2V4A3.4,3.4,0,0,1,18,7.4H4A3.4,3.4,0,0,1,.6,4V2A1.4,1.4,0,0,1,2,.6Z" fill="none"/>
    </g>
    <g id="Rectangle_6534" data-name="Rectangle 6534" transform="translate(7)" fill="none" stroke="#fff" stroke-width="1.2">
      <path d="M2,0H6A2,2,0,0,1,8,2V4A0,0,0,0,1,8,4H0A0,0,0,0,1,0,4V2A2,2,0,0,1,2,0Z" stroke="none"/>
      <path d="M2,.6H6A1.4,1.4,0,0,1,7.4,2V3.4a0,0,0,0,1,0,0H.6a0,0,0,0,1,0,0V2A1.4,1.4,0,0,1,2,.6Z" fill="none"/>
    </g>
    <path id="Path_15264" data-name="Path 15264" d="M-19635.646,19952v2.158l1.381,1.381,1.381-1.381V19952Z" transform="translate(19645.146 -19941.5)" fill="none" stroke="#fff" stroke-linecap="round" stroke-linejoin="round" stroke-width="1.2"/>
  </g>
</svg>
